<svg xmlns="http://www.w3.org/2000/svg" viewBox="0 0 64 64" fill="none">
  <defs>
    <linearGradient id="df-gradient" x1="6" y1="58" x2="58" y2="6" gradientUnits="userSpaceOnUse">
      <stop offset="0" stop-color="#FF8A2B" />
      <stop offset="1" stop-color="#FFB347" />
    </linearGradient>
    <linearGradient id="df-accent" x1="16" y1="48" x2="48" y2="16" gradientUnits="userSpaceOnUse">
      <stop offset="0" stop-color="#FFE4C2" stop-opacity="0.2" />
      <stop offset="1" stop-color="#FFFFFF" stop-opacity="0.7" />
    </linearGradient>
  </defs>
  <rect x="4" y="4" width="56" height="56" rx="16" fill="url(#df-gradient)" />
  <rect x="4" y="4" width="56" height="56" rx="16" stroke="rgba(255,255,255,0.16)" stroke-width="2" />
  <path d="M20.5 21.5h12.4c6.9 0 11.1 4 11.1 10.1 0 6.1-4.2 10.2-11.1 10.2h-8.3l5.6 5.7c0.8 0.8 0.8 2.1 0 2.9-0.8 0.8-2.1 0.8-2.9 0l-9.9-10c-0.8-0.8-0.8-2.1 0-2.9l9.9-10c0.8-0.8 2.1-0.8 2.9 0 0.8 0.8 0.8 2.1 0 2.9l-5.6 5.7h7.5c4 0 6.4-2.3 6.4-5.8 0-3.5-2.4-5.8-6.4-5.8H21.9c-1.1 0-2-0.9-2-2s0.9-2 2-2Z" fill="#FFFFFF" fill-opacity="0.95" />
  <path d="M42.5 17c1.1 0 2 0.9 2 2v26c0 1.1-0.9 2-2 2s-2-0.9-2-2V19c0-1.1 0.9-2 2-2Z" fill="#FFFFFF" fill-opacity="0.65" />
  <path d="M11 32c0-11.6 9.4-21 21-21s21 9.4 21 21-9.4 21-21 21S11 43.6 11 32Z" fill="url(#df-accent)" />
</svg>
