<?xml version="1.0" encoding="UTF-8"?>
<svg version="1.1" xmlns="http://www.w3.org/2000/svg" width="105" height="118">
<path d="M0 0 C34.65 0 69.3 0 105 0 C105 38.94 105 77.88 105 118 C70.35 118 35.7 118 0 118 C0 79.06 0 40.12 0 0 Z " fill="#F97D0B" transform="translate(0,0)"/>
<path d="M0 0 C1.07701172 -0.04576172 2.15402344 -0.09152344 3.26367188 -0.13867188 C8.60841483 -0.21404225 12.31451085 -0.19280302 16.51953125 3.33984375 C21.42725443 8.27307718 20.63661268 13.47424694 20.75 20.125 C20.79576172 21.20201172 20.84152344 22.27902344 20.88867188 23.38867188 C20.96404225 28.73341483 20.94280302 32.43951085 17.41015625 36.64453125 C15.21257602 38.83074757 13.56782432 40.37448171 10.3671875 40.53515625 C8.34895833 40.50260417 6.33072917 40.47005208 4.3125 40.4375 C4.45276283 42.75034456 4.59985558 45.06277591 4.75 47.375 C4.83121094 48.66277344 4.91242187 49.95054688 4.99609375 51.27734375 C4.96169188 54.29773957 4.96169188 54.29773957 6.3125 55.4375 C8.66237262 55.67277773 11.01806039 55.85136417 13.375 56 C14.66535156 56.08378906 15.95570312 56.16757813 17.28515625 56.25390625 C18.78369141 56.34478516 18.78369141 56.34478516 20.3125 56.4375 C20.18875 55.261875 20.065 54.08625 19.9375 52.875 C19.90449141 48.23729357 21.70947691 46.06727569 24.8046875 42.78515625 C28.95750851 39.07343799 34.73435305 40.08977293 40 40 C41.07701172 39.95423828 42.15402344 39.90847656 43.26367188 39.86132812 C48.60841483 39.78595775 52.31451085 39.80719698 56.51953125 43.33984375 C61.42725443 48.27307718 60.63661268 53.47424694 60.75 60.125 C60.79576172 61.20201172 60.84152344 62.27902344 60.88867188 63.38867188 C60.96404225 68.73341483 60.94280302 72.43951085 57.41015625 76.64453125 C52.47692282 81.55225443 47.27575306 80.76161268 40.625 80.875 C39.54798828 80.92076172 38.47097656 80.96652344 37.36132812 81.01367188 C32.01658517 81.08904225 28.31048915 81.06780302 24.10546875 77.53515625 C21.91925243 75.33757602 20.37551829 73.69282432 20.21484375 70.4921875 C20.24739583 68.47395833 20.27994792 66.45572917 20.3125 64.4375 C19.23871094 64.50710937 18.16492187 64.57671875 17.05859375 64.6484375 C4.10020109 65.23503766 4.10020109 65.23503766 -0.125 61.5625 C-3.98140647 57.3939562 -3.8115929 53.79900611 -3.75 48.3125 C-3.74548828 47.55839844 -3.74097656 46.80429688 -3.73632812 46.02734375 C-3.72453499 44.16402873 -3.70659942 42.30075445 -3.6875 40.4375 C-5.54568359 40.52644531 -5.54568359 40.52644531 -7.44140625 40.6171875 C-11.0992614 40.61557504 -12.94088558 40.20240548 -15.625 37.5625 C-16.19089844 37.02882812 -16.75679687 36.49515625 -17.33984375 35.9453125 C-21.05156201 31.79249149 -20.03522707 26.01564695 -20.125 20.75 C-20.17076172 19.67298828 -20.21652344 18.59597656 -20.26367188 17.48632812 C-20.33904225 12.14158517 -20.31780302 8.43548915 -16.78515625 4.23046875 C-11.85192282 -0.67725443 -6.65075306 0.11338732 0 0 Z " fill="#FEFDFB" transform="translate(30.6875,22.5625)"/>
<path d="M0 0 C0.886875 -0.00257812 1.77375 -0.00515625 2.6875 -0.0078125 C4.0796875 0.00378906 4.0796875 0.00378906 5.5 0.015625 C6.428125 0.00789063 7.35625 0.00015625 8.3125 -0.0078125 C9.6428125 -0.00394531 9.6428125 -0.00394531 11 0 C11.8146875 0.00225586 12.629375 0.00451172 13.46875 0.00683594 C15.5 0.265625 15.5 0.265625 17.5 2.265625 C17.75878906 4.296875 17.75878906 4.296875 17.765625 6.765625 C17.76949219 8.0959375 17.76949219 8.0959375 17.7734375 9.453125 C17.76570313 10.38125 17.75796875 11.309375 17.75 12.265625 C17.75773437 13.19375 17.76546875 14.121875 17.7734375 15.078125 C17.77085938 15.965 17.76828125 16.851875 17.765625 17.765625 C17.76336914 18.5803125 17.76111328 19.395 17.75878906 20.234375 C17.5 22.265625 17.5 22.265625 15.5 24.265625 C13.46875 24.52441406 13.46875 24.52441406 11 24.53125 C10.113125 24.53382812 9.22625 24.53640625 8.3125 24.5390625 C7.384375 24.53132813 6.45625 24.52359375 5.5 24.515625 C4.1078125 24.52722656 4.1078125 24.52722656 2.6875 24.5390625 C1.3571875 24.53519531 1.3571875 24.53519531 0 24.53125 C-0.8146875 24.52899414 -1.629375 24.52673828 -2.46875 24.52441406 C-4.5 24.265625 -4.5 24.265625 -6.5 22.265625 C-6.75878906 20.234375 -6.75878906 20.234375 -6.765625 17.765625 C-6.76820312 16.87875 -6.77078125 15.991875 -6.7734375 15.078125 C-6.76183594 13.6859375 -6.76183594 13.6859375 -6.75 12.265625 C-6.75773437 11.3375 -6.76546875 10.409375 -6.7734375 9.453125 C-6.77085938 8.56625 -6.76828125 7.679375 -6.765625 6.765625 C-6.76336914 5.9509375 -6.76111328 5.13625 -6.75878906 4.296875 C-6.21708282 0.04499205 -3.6638033 0.01014502 0 0 Z " fill="#F7800F" transform="translate(65.5,70.734375)"/>
<path d="M0 0 C0.886875 -0.00257812 1.77375 -0.00515625 2.6875 -0.0078125 C4.0796875 0.00378906 4.0796875 0.00378906 5.5 0.015625 C6.428125 0.00789063 7.35625 0.00015625 8.3125 -0.0078125 C9.6428125 -0.00394531 9.6428125 -0.00394531 11 0 C11.8146875 0.00225586 12.629375 0.00451172 13.46875 0.00683594 C15.5 0.265625 15.5 0.265625 17.5 2.265625 C17.75878906 4.296875 17.75878906 4.296875 17.765625 6.765625 C17.76949219 8.0959375 17.76949219 8.0959375 17.7734375 9.453125 C17.76570313 10.38125 17.75796875 11.309375 17.75 12.265625 C17.75773437 13.19375 17.76546875 14.121875 17.7734375 15.078125 C17.77085938 15.965 17.76828125 16.851875 17.765625 17.765625 C17.76336914 18.5803125 17.76111328 19.395 17.75878906 20.234375 C17.5 22.265625 17.5 22.265625 15.5 24.265625 C13.46875 24.52441406 13.46875 24.52441406 11 24.53125 C10.113125 24.53382812 9.22625 24.53640625 8.3125 24.5390625 C7.384375 24.53132813 6.45625 24.52359375 5.5 24.515625 C4.1078125 24.52722656 4.1078125 24.52722656 2.6875 24.5390625 C1.3571875 24.53519531 1.3571875 24.53519531 0 24.53125 C-0.8146875 24.52899414 -1.629375 24.52673828 -2.46875 24.52441406 C-4.5 24.265625 -4.5 24.265625 -6.5 22.265625 C-6.75878906 20.234375 -6.75878906 20.234375 -6.765625 17.765625 C-6.76820312 16.87875 -6.77078125 15.991875 -6.7734375 15.078125 C-6.76183594 13.6859375 -6.76183594 13.6859375 -6.75 12.265625 C-6.75773437 11.3375 -6.76546875 10.409375 -6.7734375 9.453125 C-6.77085938 8.56625 -6.76828125 7.679375 -6.765625 6.765625 C-6.76336914 5.9509375 -6.76111328 5.13625 -6.75878906 4.296875 C-6.21708282 0.04499205 -3.6638033 0.01014502 0 0 Z " fill="#FA7C09" transform="translate(25.5,30.734375)"/>
</svg>
